<svg width="20" height="20" viewBox="0 0 20 20" fill="none" xmlns="http://www.w3.org/2000/svg">
<path d="M5.83331 6.66667C4.94926 6.66667 4.10141 7.01786 3.47629 7.64298C2.85117 8.2681 2.49998 9.11594 2.49998 10C2.49998 10.8841 2.85117 11.7319 3.47629 12.357C4.10141 12.9821 4.94926 13.3333 5.83331 13.3333H7.49998C7.72099 13.3333 7.93295 13.4211 8.08923 13.5774C8.24551 13.7337 8.33331 13.9457 8.33331 14.1667C8.33331 14.3877 8.24551 14.5996 8.08923 14.7559C7.93295 14.9122 7.72099 15 7.49998 15H5.83331C4.50723 15 3.23546 14.4732 2.29778 13.5355C1.3601 12.5979 0.833313 11.3261 0.833313 10C0.833313 8.67392 1.3601 7.40215 2.29778 6.46447C3.23546 5.52678 4.50723 5 5.83331 5H7.49998C7.72099 5 7.93295 5.0878 8.08923 5.24408C8.24551 5.40036 8.33331 5.61232 8.33331 5.83333C8.33331 6.05435 8.24551 6.26631 8.08923 6.42259C7.93295 6.57887 7.72099 6.66667 7.49998 6.66667H5.83331ZM11.6666 5.83333C11.6666 5.61232 11.7544 5.40036 11.9107 5.24408C12.067 5.0878 12.279 5 12.5 5H14.1666C15.4927 5 16.7645 5.52678 17.7022 6.46447C18.6399 7.40215 19.1666 8.67392 19.1666 10C19.1666 11.3261 18.6399 12.5979 17.7022 13.5355C16.7645 14.4732 15.4927 15 14.1666 15H12.5C12.279 15 12.067 14.9122 11.9107 14.7559C11.7544 14.5996 11.6666 14.3877 11.6666 14.1667C11.6666 13.9457 11.7544 13.7337 11.9107 13.5774C12.067 13.4211 12.279 13.3333 12.5 13.3333H14.1666C15.0507 13.3333 15.8985 12.9821 16.5237 12.357C17.1488 11.7319 17.5 10.8841 17.5 10C17.5 9.11594 17.1488 8.2681 16.5237 7.64298C15.8985 7.01786 15.0507 6.66667 14.1666 6.66667H12.5C12.279 6.66667 12.067 6.57887 11.9107 6.42259C11.7544 6.26631 11.6666 6.05435 11.6666 5.83333ZM5.83331 10C5.83331 9.77899 5.92111 9.56702 6.07739 9.41074C6.23367 9.25446 6.44563 9.16667 6.66665 9.16667H13.3333C13.5543 9.16667 13.7663 9.25446 13.9226 9.41074C14.0788 9.56702 14.1666 9.77899 14.1666 10C14.1666 10.221 14.0788 10.433 13.9226 10.5893C13.7663 10.7455 13.5543 10.8333 13.3333 10.8333H6.66665C6.44563 10.8333 6.23367 10.7455 6.07739 10.5893C5.92111 10.433 5.83331 10.221 5.83331 10Z" fill="#4D4D4D"/>
</svg>
